<!-- Cloud Solutions Service Icon -->
<svg width="64" height="64" viewBox="0 0 64 64" fill="none" xmlns="http://www.w3.org/2000/svg">
  <path d="M48 28C48 22.48 43.52 18 38 18C37.12 18 36.28 18.14 35.5 18.4C33.56 14.98 29.84 12.68 25.5 12.68C19.16 12.68 14 17.84 14 24.18C14 24.54 14.02 24.9 14.06 25.26C10.64 26.82 8.32 30.36 8.32 34.5C8.32 40.02 12.8 44.5 18.32 44.5H46C50.42 44.5 54 40.92 54 36.5C54 32.62 51.24 29.38 47.58 28.18C47.86 28.12 48 28.06 48 28Z" fill="#06B6D4" stroke="#0891B2" stroke-width="2"/>
  <circle cx="24" cy="32" r="2" fill="#FFF"/>
  <circle cx="32" cy="32" r="2" fill="#FFF"/>
  <circle cx="40" cy="32" r="2" fill="#FFF"/>
  <rect x="30" y="48" width="4" height="8" fill="#374151"/>
  <rect x="28" y="56" width="8" height="2" fill="#374151"/>
</svg>
