<svg width="180" height="50" viewBox="0 0 180 50" fill="none" xmlns="http://www.w3.org/2000/svg">
  <!-- Background -->
  <rect width="180" height="50" fill="transparent" stroke="#ffffff" stroke-width="2" rx="5"/>

  <!-- Logo Icon -->
  <rect x="8" y="8" width="34" height="34" fill="#ffffff" rx="4"/>

  <!-- Icon Design -->
  <rect x="12" y="12" width="8" height="8" fill="#1F2937" rx="1"/>
  <rect x="12" y="22" width="8" height="8" fill="#1F2937" rx="1"/>
  <rect x="12" y="32" width="8" height="8" fill="#1F2937" rx="1"/>
  <rect x="22" y="12" width="8" height="8" fill="#1F2937" rx="1"/>
  <rect x="22" y="22" width="8" height="8" fill="#1F2937" rx="1"/>
  <rect x="22" y="32" width="8" height="8" fill="#1F2937" rx="1"/>
  <rect x="32" y="12" width="8" height="8" fill="#1F2937" rx="1"/>
  <rect x="32" y="22" width="8" height="8" fill="#1F2937" rx="1"/>
  <rect x="32" y="32" width="8" height="8" fill="#1F2937" rx="1"/>

  <!-- Company Name -->
  <text x="52" y="20" font-family="Arial, sans-serif" font-size="16" font-weight="bold" fill="#ffffff">INV</text>
  <text x="52" y="35" font-family="Arial, sans-serif" font-size="12" font-weight="normal" fill="#d1d5db">SOFTWARE</text>

  <!-- Tagline -->
  <text x="52" y="45" font-family="Arial, sans-serif" font-size="8" font-weight="normal" fill="#9ca3af">Solutions</text>
</svg>
