<svg xmlns="http://www.w3.org/2000/svg" viewBox="0 0 64 64">
  <path fill="#61dafb" d="M32 32.5c1.4 0 2.5-1.1 2.5-2.5s-1.1-2.5-2.5-2.5-2.5 1.1-2.5 2.5 1.1 2.5 2.5 2.5z"/>
  <path fill="#61dafb" d="M32 16.5c13.8 0 25 5.4 25 12s-11.2 12-25 12-25-5.4-25-12 11.2-12 25-12zm0 19c-8.3 0-15-3.1-15-7s6.7-7 15-7 15 3.1 15 7-6.7 7-15 7z"/>
  <path fill="#61dafb" d="M25.5 40c6.9 12 18.5 19.1 26 16s7.5-17.9.5-29.9-18.5-19.1-26-16-7.5 17.9-.5 29.9zm12.5-21.6c-4.2-7.2-9.3-11.1-11.5-8.7s-1.2 8.2 3 15.4 9.3 11.1 11.5 8.7 1.2-8.2-3-15.4z"/>
  <path fill="#61dafb" d="M25.5 24c-6.9 12-7.5 26.9 0 29.9s19.1-4 26-16 7.5-26.9 0-29.9-19.1 4-26 16zm12.5 21.6c4.2 7.2 5.2 13 3 15.4s-7.3-1.5-11.5-8.7-5.2-13-3-15.4 7.3 1.5 11.5 8.7z"/>
</svg>
