<svg xmlns="http://www.w3.org/2000/svg" viewBox="0 0 64 64">
  <rect width="64" height="64" fill="#3178c6"/>
  <path fill="#fff" d="M22.6 34.4h-8.9v-4.3h23.4v4.3h-8.9v24.5h-5.6V34.4z"/>
  <path fill="#fff" d="M36.4 36.1h5.3c.2 1.2.7 2.1 1.4 2.8.7.7 1.6 1 2.7 1 1.1 0 2-.3 2.6-.9.6-.6.9-1.3.9-2.1 0-.8-.3-1.5-.9-2-.6-.5-1.7-1.1-3.3-1.8-1.6-.7-2.8-1.3-3.6-1.9-1.4-1.2-2.1-2.7-2.1-4.5 0-1.8.6-3.3 1.9-4.5 1.3-1.2 3-1.8 5-1.8 2.1 0 3.9.6 5.2 1.8 1.3 1.2 2 2.8 2.1 4.8h-5.3c-.1-.9-.4-1.6-.9-2.1-.5-.5-1.2-.8-2.1-.8-.8 0-1.5.2-2 .7-.5.5-.7 1.1-.7 1.8 0 .6.2 1.1.7 1.5.5.4 1.3.9 2.4 1.4 1.1.5 2 1 2.6 1.4 1.8 1.2 2.7 2.9 2.7 5.1 0 1.9-.7 3.5-2.1 4.7-1.4 1.2-3.3 1.8-5.6 1.8-2.4 0-4.3-.6-5.7-1.9-1.4-1.3-2.1-3-2.1-5.1v-.4z"/>
</svg>
